-
If you care to share, you should love to seed,

please Seed what you leech and make the speed Faster with your speed,

Remember to visit
 
http://www.torrentkit.com



-
                                                     
                                                   
                                                         
                                                          
                                                           
                                                          
                                                          
                                                          
                                                           
                                                         
                                                          
                                                        
                                                      
                                     
                                                 
                                                   
                                             
                                              
                                                     
                                                      
                                                      
                                                      
                                                    
                                                     
                                                   
                                                     
                                                     
                                                      
                                                     
                                                      
                                                    
                 ARTiCHOKE                        
                                                
                      
                                                        
                                                      
                                                      
                                               
                                          
                                                   
                                            
                                                    
                                                       
                                                        
                                                      
                                                
                                                        
                                                 
                                              
                                                  
                                                
                                                  
                                        

      
                                
      SPRiNTER proudly presents...     
                                
      
 
 Edward.II.1970.DVDRip.XViD-SPRiNTER   http://www.imdb.com/title/tt0065684/
 Subtitles:NA

 Date: 2010.08

 Director:Richard Marquand | Toby Robertson

 Genre: Drama


 Plot: The reign of Edward II, King of England, is troubled from the start when he brings his male lover, hated by the nobles, out of exile. 

 Cast
 Ian McKellen ...  King Edward 
 Timothy West ...  Young Mortimer 
 Diane Fletcher ...  Queen Isabella 
 James Laurenson ...  Piers Gaveston 
 Robert Eddison ...  Lightborn / Archbishop of Canterbury 
 Paul Hardwick ...  Earl of Warwick / Sir John Maltravers 
 Trevor Martin ...  Earl of Lancaster / Rice Ap Howell 
 Andrew Crawford ...  Old Spencer / Third Poor Man 
 Peter Bourne ...  Edmund of Kent 
 David Calder ...  Young Spencer 





      
                 
      Release notes     
                 
      

 Hybird Source + Alternating Crop
 Enjoy!


      
           
     Greetings    
           
      


NTX aAF FiCO HNR CiNEFiLE AEN HUMANiSM


      
           
      Details     
           
      


Format                           : AVI
Format/Info                      : Audio Video Interleave
File size                        : 1.36 GiB
Duration                         : 2h 4mn
Overall bit rate                 : 1 568 Kbps
Writing application              : Nandub v1.0rc2
Writing library                  : Nandub build 1852/release

Video
ID                               : 0
Format                           : MPEG-4 Visual
Format profile                   : Advanced Simple@L5
Format settings, BVOP            : No
Format settings, QPel            : No
Format settings, GMC             : No warppoints
Format settings, Matrix          : Default (H.263)
Codec ID                         : XVID
Codec ID/Hint                    : XviD
Duration                         : 2h 4mn
Bit rate                         : 1 489 Kbps
Width                            : 512 pixels
Height                           : 384 pixels
Display aspect ratio             : 4:3
Frame rate                       : 24.975 fps
Resolution                       : 8 bits
Colorimetry                      : 4:2:0
Scan type                        : Progressive
Bits/(Pixel*Frame)               : 0.303
Stream size                      : 1.30 GiB (95%)
Writing library                  : XviD 1.1.2 (UTC 2006-11-01)

Audio
ID                               : 1
Format                           : MPEG Audio
Format version                   : Version 1
Format profile                   : Layer 3
Codec ID                         : 55
Codec ID/Hint                    : MP3
Duration                         : 2h 4mn
Bit rate mode                    : Variable
Bit rate                         : 65.8 Kbps
Minimum bit rate                 : 40.0 Kbps
Channel(s)                       : 1 channel
Sampling rate                    : 48.0 KHz
Stream size                      : 58.6 MiB (4%)
Alignment                        : Aligned on interleaves
Interleave, duration             : 24 ms (0.60 video frame)
Interleave, preload duration     : 507 ms
Writing library                  : LAME3.95 
Encoding settings                : -m m -V 6 -q 3 -lowpass 16 --vbr-old -b 40